HIERARCHY
ROOT Hips
{
    OFFSET 0.000000 97.120003 0.000000
    CHANNELS 6 Xposition Yposition Zposition Zrotation Yrotation Xrotation
    JOINT RightHip
    {
        OFFSET -11.000000 0.000000 0.000000
        CHANNELS 6 Xposition Yposition Zposition Zrotation Yrotation Xrotation
        JOINT RightKnee
        {
            OFFSET 0.000000 -45.062000 0.000000
            CHANNELS 6 Xposition Yposition Zposition Zrotation Yrotation Xrotation
            JOINT RightAnkle
            {
                OFFSET 0.000000 -42.057999 0.000000
                CHANNELS 6 Xposition Yposition Zposition Zrotation Yrotation Xrotation
                End Site
                {
                    OFFSET 0.000000 -10.000000 15.120000
                }
            }
        }
    }
    JOINT LeftHip
    {
        OFFSET 11.000000 0.000000 0.000000
        CHANNELS 6 Xposition Yposition Zposition Zrotation Yrotation Xrotation
        JOINT LeftKnee
        {
            OFFSET 0.000000 -45.062000 0.000000
            CHANNELS 6 Xposition Yposition Zposition Zrotation Yrotation Xrotation
            JOINT LeftAnkle
            {
                OFFSET 0.000000 -42.057999 0.000000
                CHANNELS 6 Xposition Yposition Zposition Zrotation Yrotation Xrotation
                End Site
                {
                    OFFSET 0.000000 -10.000000 15.120000
                }
            }
        }
    }
    JOINT Chest
    {
        OFFSET 0.000000 8.120003 0.000000
        CHANNELS 6 Xposition Yposition Zposition Zrotation Yrotation Xrotation
        JOINT Chest2
        {
            OFFSET 0.000000 17.979996 0.000000
            CHANNELS 6 Xposition Yposition Zposition Zrotation Yrotation Xrotation
            JOINT Chest3
            {
                OFFSET 0.000000 12.759995 0.000000
                CHANNELS 6 Xposition Yposition Zposition Zrotation Yrotation Xrotation
                JOINT Neck
                {
                    OFFSET 0.000000 19.139999 0.000000
                    CHANNELS 6 Xposition Yposition Zposition Zrotation Yrotation Xrotation
                    JOINT Head
                    {
                        OFFSET 0.000000 8.500000 0.000000
                        CHANNELS 6 Xposition Yposition Zposition Zrotation Yrotation Xrotation
                        End Site
                        {
                            OFFSET 0.000000 19.119995 0.000000
                        }
                    }
                }
                JOINT RightCollar
                {
                    OFFSET -2.900000 13.339996 0.000000
                    CHANNELS 6 Xposition Yposition Zposition Zrotation Yrotation Xrotation
                    JOINT RightShoulder
                    {
                        OFFSET -16.100000 0.000000 0.000000
                        CHANNELS 6 Xposition Yposition Zposition Zrotation Yrotation Xrotation
                        JOINT RightElbow
                        {
                            OFFSET 0.000000 -28.000000 0.000000
                            CHANNELS 6 Xposition Yposition Zposition Zrotation Yrotation Xrotation
                            JOINT RightWrist
                            {
                                OFFSET -0.000002 -26.000000 0.000000
                                CHANNELS 6 Xposition Yposition Zposition Zrotation Yrotation Xrotation
                                JOINT RightFinger0
                                {
                                    OFFSET -0.200001 -2.616997 3.281000
                                    CHANNELS 6 Xposition Yposition Zposition Zrotation Yrotation Xrotation
                                    JOINT RightFinger01
                                    {
                                        OFFSET 0.000000 -3.872002 0.000000
                                        CHANNELS 6 Xposition Yposition Zposition Zrotation Yrotation Xrotation
                                        JOINT RightFinger02
                                        {
                                            OFFSET 0.000000 -2.690002 0.000000
                                            CHANNELS 6 Xposition Yposition Zposition Zrotation Yrotation Xrotation
                                            End Site
                                            {
                                                OFFSET 0.000000 -2.306000 0.000000
                                            }
                                        }
                                    }
                                }
                                JOINT RightFinger1
                                {
                                    OFFSET -0.439001 -8.874001 3.131000
                                    CHANNELS 6 Xposition Yposition Zposition Zrotation Yrotation Xrotation
                                    JOINT RightFinger11
                                    {
                                        OFFSET 0.000000 -3.806000 0.000000
                                        CHANNELS 6 Xposition Yposition Zposition Zrotation Yrotation Xrotation
                                        JOINT RightFinger12
                                        {
                                            OFFSET 0.000000 -2.157997 0.000000
                                            CHANNELS 6 Xposition Yposition Zposition Zrotation Yrotation Xrotation
                                            End Site
                                            {
                                                OFFSET 0.000000 -1.898003 0.000000
                                            }
                                        }
                                    }
                                }
                                JOINT RightFinger2
                                {
                                    OFFSET -0.456001 -8.996002 1.126000
                                    CHANNELS 6 Xposition Yposition Zposition Zrotation Yrotation Xrotation
                                    JOINT RightFinger21
                                    {
                                        OFFSET 0.000000 -4.153000 0.000000
                                        CHANNELS 6 Xposition Yposition Zposition Zrotation Yrotation Xrotation
                                        JOINT RightFinger22
                                        {
                                            OFFSET 0.000000 -2.602997 0.000000
                                            CHANNELS 6 Xposition Yposition Zposition Zrotation Yrotation Xrotation
                                            End Site
                                            {
                                                OFFSET 0.000000 -2.076004 0.000000
                                            }
                                        }
                                    }
                                }
                                JOINT RightFinger3
                                {
                                    OFFSET -0.543001 -8.411003 -0.640000
                                    CHANNELS 6 Xposition Yposition Zposition Zrotation Yrotation Xrotation
                                    JOINT RightFinger31
                                    {
                                        OFFSET 0.000000 -3.619003 0.000000
                                        CHANNELS 6 Xposition Yposition Zposition Zrotation Yrotation Xrotation
                                        JOINT RightFinger32
                                        {
                                            OFFSET 0.000000 -2.511002 0.000000
                                            CHANNELS 6 Xposition Yposition Zposition Zrotation Yrotation Xrotation
                                            End Site
                                            {
                                                OFFSET 0.000000 -1.952003 0.000000
                                            }
                                        }
                                    }
                                }
                                JOINT RightFinger4
                                {
                                    OFFSET -0.470999 -7.678001 -2.411000
                                    CHANNELS 6 Xposition Yposition Zposition Zrotation Yrotation Xrotation
                                    JOINT RightFinger41
                                    {
                                        OFFSET 0.000000 -2.898003 0.000000
                                        CHANNELS 6 Xposition Yposition Zposition Zrotation Yrotation Xrotation
                                        JOINT RightFinger42
                                        {
                                            OFFSET 0.000000 -1.831001 0.000000
                                            CHANNELS 6 Xposition Yposition Zposition Zrotation Yrotation Xrotation
                                            End Site
                                            {
                                                OFFSET 0.000000 -1.730003 0.000000
                                            }
                                        }
                                    }
                                }
                            }
                        }
                    }
                }
                JOINT LeftCollar
                {
                    OFFSET 2.900000 13.339996 0.000000
                    CHANNELS 6 Xposition Yposition Zposition Zrotation Yrotation Xrotation
                    JOINT LeftShoulder
                    {
                        OFFSET 16.100000 0.000000 0.000000
                        CHANNELS 6 Xposition Yposition Zposition Zrotation Yrotation Xrotation
                        JOINT LeftElbow
                        {
                            OFFSET 0.000006 -28.000000 0.000002
                            CHANNELS 6 Xposition Yposition Zposition Zrotation Yrotation Xrotation
                            JOINT LeftWrist
                            {
                                OFFSET 0.000004 -26.000000 0.000002
                                CHANNELS 6 Xposition Yposition Zposition Zrotation Yrotation Xrotation
                                JOINT LeftFinger0
                                {
                                    OFFSET 0.200001 -2.616997 3.281000
                                    CHANNELS 6 Xposition Yposition Zposition Zrotation Yrotation Xrotation
                                    JOINT LeftFinger01
                                    {
                                        OFFSET 0.000000 -3.872002 0.000000
                                        CHANNELS 6 Xposition Yposition Zposition Zrotation Yrotation Xrotation
                                        JOINT LeftFinger02
                                        {
                                            OFFSET 0.000000 -2.690002 0.000000
                                            CHANNELS 6 Xposition Yposition Zposition Zrotation Yrotation Xrotation
                                            End Site
                                            {
                                                OFFSET 0.000000 -2.306000 0.000000
                                            }
                                        }
                                    }
                                }
                                JOINT LeftFinger1
                                {
                                    OFFSET 0.439003 -8.874001 3.131001
                                    CHANNELS 6 Xposition Yposition Zposition Zrotation Yrotation Xrotation
                                    JOINT LeftFinger11
                                    {
                                        OFFSET 0.000000 -3.806000 0.000000
                                        CHANNELS 6 Xposition Yposition Zposition Zrotation Yrotation Xrotation
                                        JOINT LeftFinger12
                                        {
                                            OFFSET 0.000000 -2.157997 0.000000
                                            CHANNELS 6 Xposition Yposition Zposition Zrotation Yrotation Xrotation
                                            End Site
                                            {
                                                OFFSET 0.000000 -1.898003 0.000000
                                            }
                                        }
                                    }
                                }
                                JOINT LeftFinger2
                                {
                                    OFFSET 0.456001 -8.996002 1.126001
                                    CHANNELS 6 Xposition Yposition Zposition Zrotation Yrotation Xrotation
                                    JOINT LeftFinger21
                                    {
                                        OFFSET 0.000002 -4.153000 0.000000
                                        CHANNELS 6 Xposition Yposition Zposition Zrotation Yrotation Xrotation
                                        JOINT LeftFinger22
                                        {
                                            OFFSET 0.000000 -2.602997 0.000000
                                            CHANNELS 6 Xposition Yposition Zposition Zrotation Yrotation Xrotation
                                            End Site
                                            {
                                                OFFSET 0.000000 -2.075996 0.000000
                                            }
                                        }
                                    }
                                }
                                JOINT LeftFinger3
                                {
                                    OFFSET 0.543001 -8.411003 -0.639999
                                    CHANNELS 6 Xposition Yposition Zposition Zrotation Yrotation Xrotation
                                    JOINT LeftFinger31
                                    {
                                        OFFSET 0.000000 -3.619003 0.000000
                                        CHANNELS 6 Xposition Yposition Zposition Zrotation Yrotation Xrotation
                                        JOINT LeftFinger32
                                        {
                                            OFFSET 0.000000 -2.511002 0.000000
                                            CHANNELS 6 Xposition Yposition Zposition Zrotation Yrotation Xrotation
                                            End Site
                                            {
                                                OFFSET 0.000000 -1.952003 0.000000
                                            }
                                        }
                                    }
                                }
                                JOINT LeftFinger4
                                {
                                    OFFSET 0.471003 -7.677994 -2.410999
                                    CHANNELS 6 Xposition Yposition Zposition Zrotation Yrotation Xrotation
                                    JOINT LeftFinger41
                                    {
                                        OFFSET 0.000000 -2.898003 0.000000
                                        CHANNELS 6 Xposition Yposition Zposition Zrotation Yrotation Xrotation
                                        JOINT LeftFinger42
                                        {
                                            OFFSET 0.000000 -1.831001 0.000000
                                            CHANNELS 6 Xposition Yposition Zposition Zrotation Yrotation Xrotation
                                            End Site
                                            {
                                                OFFSET 0.000000 -1.730003 0.000000
                                            }
                                        }
                                    }
                                }
                            }
                        }
                    }
                }
            }
        }
    }
}
MOTION
Frames: 3
Frame Time: 0.033333
-3.325666 97.085632 0.336098 179.574509 61.175335 179.328934 -10.985894 0.011993 0.032070 0.380860 5.578501 -2.675237 -0.002082 -45.050335 0.005798 0.471919 -0.275766 6.707525 0.004111 -42.056713 0.029124 178.245117 175.225922 174.445526 10.983442 -0.015457 -0.022285 179.432861 173.499146 177.351089 -0.000930 -45.074593 -0.003344 0.803505 0.281442 6.520310 -0.011262 -42.063938 -0.023809 1.620508 -2.193354 -4.985698 0.003588 8.121101 -0.002211 179.969467 178.316635 179.160263 0.001878 17.980988 -0.002801 179.966064 178.316681 179.176392 -0.000205 12.761024 -0.003737 179.846100 172.143860 179.400253 -0.000640 19.139984 -0.000925 0.673470 0.009128 -0.776202 -0.000248 8.499969 0.000122 1.254866 -5.361106 -1.580234 -2.900481 13.340729 -0.002880 1.154106 -9.464143 -0.442258 -16.096449 -0.000977 0.001518 179.887833 166.148117 178.045166 0.009787 -27.999153 0.001279 2.871905 -3.324745 -8.538861 -0.002850 -25.997070 0.001435 160.846558 165.412781 171.786301 -2.617058 0.199875 3.281011 30.131882 15.728312 90.476204 -3.683372 -0.986954 0.672389 178.097565 -169.300568 -177.412094 -2.558762 -0.685623 0.467094 178.492371 -179.927811 179.744125 -8.874611 0.438492 3.130711 46.051487 10.515786 10.763546 -3.805504 0.000000 0.000000 36.857697 0.000005 0.000005 -2.157639 0.000000 0.000000 26.814592 -0.000002 0.000007 -8.996246 0.455551 1.125692 33.214928 -0.014276 0.029616 -4.152588 0.000000 0.000000 49.814144 -0.000003 -0.000001 -2.603119 0.000000 0.000000 33.176247 -0.000004 0.000002 -8.411316 0.542313 -0.639158 31.532873 -8.560534 -5.180044 -3.619415 0.000000 0.000000 46.713463 0.000003 0.000011 -2.510925 0.000000 0.000000 31.111160 -0.000006 0.000011 -7.677643 0.470261 -2.410206 54.972225 -11.824354 -16.241583 -2.898293 0.000000 0.000000 79.919182 -0.000003 0.000009 -1.831474 0.000000 0.000000 53.226147 -0.000024 -0.000013 2.900617 13.339371 0.000205 176.197800 -168.185211 179.743866 16.101868 0.000641 -0.000827 7.733278 18.135973 2.315631 -0.000553 -27.999908 0.000300 177.797958 -161.188538 176.449097 0.002146 -25.999146 -0.004298 15.927052 16.923929 -0.595908 2.617058 0.199875 3.281011 149.830826 -163.931274 -89.350769 3.683372 -0.986954 0.672390 2.652934 11.316456 2.619655 2.558762 -0.685623 0.467094 2.221731 0.108730 -0.376413 8.874611 0.438492 3.130711 139.787964 -168.437592 -170.373962 3.805504 0.000000 0.000000 147.895172 -179.999985 179.999985 2.157639 0.000000 0.000000 157.526627 179.999985 179.999985 8.996246 0.455551 1.125692 132.699875 179.997925 -179.994156 4.152588 0.000000 0.000000 125.590935 -179.999985 -179.999985 2.603119 0.000000 0.000000 140.789291 -179.999985 179.999985 8.411316 0.542313 -0.639158 125.039307 174.217194 171.831207 3.619415 0.000000 0.000000 125.447350 -179.999985 179.999985 2.510925 0.000000 0.000000 139.085510 -179.999985 179.999985 7.677643 0.470261 -2.410206 142.984634 163.795364 168.121979 2.898293 0.000000 0.000000 127.013718 -179.999985 179.999954 1.831474 0.000000 0.000000 144.711151 -179.999985 179.999985 
-3.324919 97.086456 0.318755 179.615601 61.130932 179.357483 -10.992731 0.009010 0.033002 0.398794 5.544756 -2.652567 -0.001663 -45.050415 0.005673 0.473932 -0.268375 6.702031 0.002278 -42.057659 0.029998 178.232819 175.248077 174.436539 10.980083 -0.014481 -0.014265 179.445114 173.506805 177.372437 0.000495 -45.074181 -0.002813 0.803083 0.277886 6.515704 -0.010103 -42.061459 -0.016710 1.629714 -2.227231 -5.005929 0.002845 8.121101 -0.008042 179.977295 178.293686 179.181671 0.003113 17.981041 -0.006553 179.978851 178.293640 179.197403 0.000846 12.761139 -0.005793 179.863892 172.036789 179.414139 -0.001165 19.139862 0.000250 0.672770 0.009147 -0.777928 -0.000088 8.499939 0.000453 1.257641 -5.490037 -1.584093 -2.897840 13.339859 -0.003390 1.004973 -9.741718 -0.681781 -16.095371 0.000992 -0.002705 179.683304 166.232651 178.246704 0.002905 -27.999176 0.001177 2.922331 -4.565446 -8.451613 -0.001022 -25.997742 0.004417 161.200562 165.606720 171.777939 -2.617058 0.199875 3.281011 30.108311 15.734751 90.418381 -3.683372 -0.986954 0.672389 178.135162 -169.419159 -177.438873 -2.558754 -0.685623 0.467094 178.523453 -179.929642 179.749237 -8.874611 0.438492 3.130711 46.008118 10.554098 10.718114 -3.805504 0.000000 0.000000 36.834805 -0.000012 -0.000008 -2.157639 0.000000 0.000000 26.792698 -0.000005 0.000004 -8.996246 0.455551 1.125692 33.178093 0.009198 -0.016387 -4.152588 0.000000 0.000000 49.770954 0.000013 0.000021 -2.603119 0.000000 0.000000 33.147430 -0.000008 0.000015 -8.411316 0.542313 -0.639158 31.499426 -8.541407 -5.222409 -3.619415 0.000000 0.000000 46.665173 -0.000026 -0.000035 -2.510925 0.000000 0.000000 31.078953 -0.000005 -0.000033 -7.677643 0.470261 -2.410207 54.901554 -11.805605 -16.262175 -2.898293 0.000000 0.000000 79.812424 0.000052 -0.000211 -1.831474 0.000000 0.000000 53.155010 0.000131 -0.000048 2.902375 13.340805 0.001045 176.125076 -168.103485 179.654022 16.101955 0.000809 -0.002018 8.079318 18.526295 2.511884 -0.000351 -27.999840 -0.002450 177.621902 -161.229080 176.215607 -0.001860 -25.999283 -0.000554 15.957386 17.139719 -0.576172 2.617058 0.199875 3.281011 149.818680 -163.923553 -89.354607 3.683372 -0.986954 0.672390 2.657511 11.207596 2.587609 2.558762 -0.685623 0.467094 2.231449 0.109224 -0.378054 8.874611 0.438492 3.130711 139.674088 -168.450089 -170.359192 3.805504 0.000000 0.000000 147.812424 -179.999985 -179.999985 2.157639 0.000000 0.000000 157.468719 -179.999985 -179.999985 8.996246 0.455551 1.125693 132.439087 -179.997009 -179.999100 4.152588 0.000000 0.000000 125.598518 179.999985 179.999985 2.603119 0.000000 0.000000 140.733795 179.999985 -179.999985 8.411316 0.542313 -0.639158 124.921021 174.237823 171.816452 3.619415 0.000000 0.000000 125.342140 -179.999985 -179.999985 2.510925 0.000000 0.000000 139.006638 179.999985 -179.999985 7.677643 0.470261 -2.410206 142.447525 163.905594 167.970703 2.898293 0.000000 0.000000 126.244682 179.999985 179.999847 1.831474 0.000000 0.000000 144.198959 -179.999954 179.999924 
-3.318177 97.089386 0.317507 179.664307 61.082211 179.383362 -10.981595 0.006332 0.036016 0.418378 5.533796 -2.624923 -0.001338 -45.051376 0.005855 0.467346 -0.280768 6.706458 0.007829 -42.061527 0.032427 178.236130 175.274307 174.424255 10.994124 -0.013535 -0.008367 179.457016 173.536438 177.394104 0.002041 -45.074150 -0.001583 0.804553 0.280785 6.519211 -0.003595 -42.060738 -0.011331 1.642905 -2.248012 -5.020385 0.001388 8.122047 -0.009589 179.987991 178.260376 179.201050 0.009776 17.982231 -0.007396 179.996597 178.260254 179.216415 0.021722 12.762146 -0.003758 179.887115 171.881393 179.425934 0.025830 19.139862 0.006072 0.679868 0.009173 -0.773508 0.003842 8.499908 0.001146 1.273819 -5.685214 -1.575577 -2.890200 13.347504 -0.002961 0.879172 -9.968767 -0.793066 -16.097382 0.000351 -0.001200 179.461487 166.622299 178.375793 0.007225 -27.998756 -0.002362 2.707354 -5.764669 -8.318915 0.005678 -25.999344 0.005597 161.630356 165.853378 171.862854 -2.617058 0.199875 3.281011 30.109715 15.724383 90.396606 -3.683372 -0.986954 0.672389 178.145996 -169.504868 -177.461258 -2.558762 -0.685623 0.467094 178.530075 -179.929825 179.750443 -8.874611 0.438492 3.130711 45.966053 10.560873 10.689046 -3.805504 0.000000 0.000000 36.797386 -0.000017 -0.000024 -2.157639 0.000000 0.000000 26.757002 -0.000012 -0.000022 -8.996246 0.455551 1.125693 33.124340 0.002969 -0.035852 -4.152588 0.000000 0.000000 49.679222 -0.000004 0.000000 -2.603119 0.000000 0.000000 33.086388 0.000003 -0.000011 -8.411316 0.542313 -0.639158 31.459015 -8.552740 -5.234368 -3.619415 0.000000 0.000000 46.589485 -0.000053 -0.000068 -2.510925 0.000000 0.000000 31.028601 -0.000006 -0.000044 -7.677643 0.470261 -2.410206 54.869511 -11.816625 -16.274023 -2.898293 0.000000 0.000000 79.745453 0.000062 -0.000202 -1.831474 0.000000 0.000000 53.110504 0.000155 -0.000055 2.910805 13.334427 0.002399 176.048141 -167.978851 179.609055 16.101191 -0.000122 -0.002241 8.441203 18.864534 2.632343 0.000277 -27.999329 -0.002295 177.567902 -161.597504 175.980698 -0.004366 -25.999863 -0.000548 16.058657 17.200760 -0.412800 2.617058 0.199875 3.281011 149.809845 -163.920700 -89.324623 3.683372 -0.986954 0.672390 2.693321 11.167355 2.569118 2.558762 -0.685623 0.467094 2.269540 0.111141 -0.384531 8.874611 0.438492 3.130711 139.685135 -168.464996 -170.345764 3.805504 0.000000 0.000000 147.824493 -179.999985 -179.999985 2.157639 0.000000 0.000000 157.477142 179.999985 -179.999985 8.996246 0.455551 1.125692 132.457489 179.983688 -179.985336 4.152588 0.000000 0.000000 125.597893 -179.999985 179.999985 2.603119 0.000000 0.000000 140.738022 179.999985 -179.999985 8.411316 0.542313 -0.639158 124.894547 174.220779 171.824875 3.619415 0.000000 0.000000 125.314857 -179.999985 179.999969 2.510925 0.000000 0.000000 138.986160 -179.999985 179.999985 7.677643 0.470261 -2.410206 142.379944 163.903625 167.968277 2.898293 0.000000 0.000000 126.138687 179.999985 179.999725 1.831474 0.000000 0.000000 144.128387 -179.999893 179.999847 
